<?xml version="1.0" encoding="UTF-8"?>
<svg xmlns="http://www.w3.org/2000/svg" xmlns:xlink="http://www.w3.org/1999/xlink" version="1.1" viewBox="0 0 1366 361.41">
  <!-- Generator: Adobe Illustrator 30.2.1, SVG Export Plug-In . SVG Version: 2.1.1 Build 1)  -->
  <defs>
    <style>
      .st0 {
        fill: url(#Gradiente_sem_nome_92);
      }

      .st0, .st1, .st2, .st3, .st4 {
        mix-blend-mode: multiply;
      }

      .st1 {
        fill: url(#Gradiente_sem_nome_91);
      }

      .st2 {
        fill: url(#Gradiente_sem_nome_93);
      }

      .st3 {
        fill: url(#Gradiente_sem_nome_12);
      }

      .st5 {
        isolation: isolate;
      }

      .st6 {
        fill: #fff;
      }

      .st4 {
        fill: url(#Gradiente_sem_nome_9);
      }
    </style>
    <linearGradient id="Gradiente_sem_nome_12" data-name="Gradiente sem nome 12" x1="117.29" y1="165.45" x2="162.45" y2="165.45" gradientUnits="userSpaceOnUse">
      <stop offset="0" stop-color="#fff" stop-opacity="0"/>
      <stop offset=".85" stop-color="#333"/>
    </linearGradient>
    <linearGradient id="Gradiente_sem_nome_9" data-name="Gradiente sem nome 9" x1="765.59" y1="287.48" x2="720.6" y2="290.29" gradientUnits="userSpaceOnUse">
      <stop offset="0" stop-color="#fff" stop-opacity="0"/>
      <stop offset="1" stop-color="#333"/>
    </linearGradient>
    <linearGradient id="Gradiente_sem_nome_91" data-name="Gradiente sem nome 9" x1="605.53" y1="147.46" x2="502.02" y2="251.46" xlink:href="#Gradiente_sem_nome_9"/>
    <linearGradient id="Gradiente_sem_nome_92" data-name="Gradiente sem nome 9" x1="349.58" y1="147.45" x2="246.07" y2="251.45" xlink:href="#Gradiente_sem_nome_9"/>
    <linearGradient id="Gradiente_sem_nome_93" data-name="Gradiente sem nome 9" x1="-1005.4" y1="12920.63" x2="-1073.93" y2="13000.7" gradientTransform="translate(-443.72 13204.34) rotate(-180)" xlink:href="#Gradiente_sem_nome_9"/>
  </defs>
  <g class="st5">
    <g id="Camada_1">
      <g>
        <path class="st6" d="M772.2,261.43h0s0,0,0,0h0ZM742.09,306.59,696.92,306.59,764.67,272.72,719.5,272.72,742.08,306.59h-45.17l-60.22-90.33-60.22,90.33h0s-45.17,0-45.17,0l105.39-158.08h0s0,0,0,0h0s0,0,0,0l82.8,124.21h45.17l-22.58,33.87ZM109.76,193.68h0s0,0,0,0h0ZM606.59,148.51h-45.17s-60.22,90.33-60.22,90.33l-127.97-191.96-22.58,33.87,150.55,225.83h0s0,0,0,0h0s0,0,0,0l105.39-158.08ZM365.7,148.51v158.08h33.61l-.13-107.94-33.47-50.14ZM358.17,137.22l-112.91,169.37h0s0,0,0,0h0s0,0,0,0h0s0,0,0,0h0s0,0,0,0h0s0,0,0,0l-82.8-124.21h-45.17l22.58-33.87h0s0,0,0,0h0s0,0,0,0h45.17,0s0,0,0,0l60.22,90.33,90.33-135.5h0s0,0,0,0h0s0,0,0,0l22.58,33.87ZM109.76,193.68h0s0,0,0,0h0Z"/>
        <polyline class="st3" points="162.45 182.39 162.16 181.95 139.87 148.51 117.29 182.39"/>
        <polygon class="st4" points="719.5 272.72 742.08 306.59 764.67 272.72 719.5 272.72"/>
        <polygon class="st1" points="501.2 238.84 561.42 148.51 606.59 148.51 523.65 272.99 501.2 238.84"/>
        <polygon class="st0" points="245.25 238.84 305.48 148.51 350.64 148.51 267.7 272.98 245.25 238.84"/>
        <polygon class="st2" points="636.7 216.26 576.48 306.59 531.31 306.59 614.25 182.12 636.7 216.26"/>
        <path class="st6" d="M790.16,298.77v-24.22h22.93v24.22h-22.93Z"/>
        <g>
          <path class="st6" d="M884.03,306.95c-9.08,0-17.15-1.49-24.2-4.45-7.05-2.97-13.09-7.11-18.12-12.43-5.03-5.32-8.87-11.36-11.52-18.13-2.65-6.77-3.98-13.88-3.98-21.34,0-10.08,2.3-19.41,6.91-27.97,4.61-8.56,11.24-15.4,19.9-20.51,8.66-5.11,18.92-7.67,30.8-7.67s22.07,2.59,30.59,7.75c8.52,5.17,14.8,11.94,18.86,20.32l-27.24,8.38c-2.38-4.05-5.52-7.16-9.43-9.32-3.91-2.16-8.31-3.25-13.2-3.25-5.17,0-9.92,1.34-14.25,4.01-4.33,2.67-7.79,6.41-10.37,11.2-2.59,4.8-3.88,10.48-3.88,17.06s1.29,11.92,3.88,16.85c2.58,4.93,6.04,8.77,10.37,11.51,4.33,2.74,9.15,4.11,14.46,4.11,3.49,0,6.7-.56,9.64-1.68,2.93-1.12,5.62-2.69,8.07-4.71,2.44-2.02,4.22-4.22,5.34-6.6l27.24,8.38c-2.51,5.45-6.18,10.34-11,14.67-4.82,4.33-10.47,7.72-16.97,10.16-6.49,2.44-13.79,3.67-21.89,3.67Z"/>
          <path class="st6" d="M943.53,272.79c0-7.04,1.99-13.18,5.97-18.42,3.98-5.24,9.5-9.35,16.55-12.31,7.05-2.97,15.26-4.45,24.62-4.45,4.61,0,9.29.35,14.04,1.05,4.75.7,8.87,1.82,12.36,3.35v-6.05c0-6.72-2.03-11.93-6.08-15.63-4.05-3.7-10.13-5.56-18.23-5.56-6.15,0-11.94,1.05-17.39,3.14-5.45,2.1-11.18,5.1-17.18,9.01l-8.8-18.23c7.12-4.89,14.49-8.49,22.1-10.79,7.61-2.3,15.61-3.46,23.99-3.46,15.64,0,27.83,3.82,36.56,11.46,8.73,7.64,13.09,18.69,13.09,33.15v34.49c0,2.89.52,4.96,1.57,6.2,1.05,1.24,2.76,2,5.13,2.27v22.84c-2.51.42-4.79.77-6.81,1.05-2.03.28-3.74.35-5.13.21-5.59,0-9.81-1.22-12.67-3.67-2.86-2.44-4.58-5.48-5.13-9.11l-.63-5.66c-4.89,6.15-10.89,10.89-18.02,14.25-7.12,3.35-14.39,5.03-21.79,5.03s-13.79-1.52-19.59-4.55c-5.8-3.03-10.34-7.14-13.62-12.32-3.28-5.17-4.92-10.94-4.92-17.29ZM1011.82,278.05c1.54-1.36,2.79-2.93,3.77-4.7.98-1.77,1.47-3.27,1.47-4.5v-10.83c-3.35-1.36-6.99-2.42-10.89-3.17-3.91-.75-7.61-1.13-11.1-1.13-7.26,0-13.23,1.53-17.91,4.6-4.68,3.06-7.02,7.12-7.02,12.16,0,2.72.77,5.35,2.3,7.87,1.54,2.52,3.74,4.53,6.6,6.03,2.86,1.5,6.39,2.25,10.58,2.25s8.31-.81,12.36-2.45c4.05-1.63,7.33-3.68,9.85-6.13Z"/>
          <path class="st6" d="M1111.76,306.95c-9.36,0-18.33-1.54-26.92-4.61-8.59-3.07-15.89-7.61-21.89-13.62l10.27-18.23c6.42,5.31,12.78,9.22,19.06,11.73,6.29,2.51,12.43,3.77,18.44,3.77,5.45,0,9.81-.94,13.09-2.83,3.28-1.89,4.92-4.71,4.92-8.48,0-2.76-.91-4.86-2.72-6.3-1.82-1.45-4.44-2.69-7.86-3.73-3.42-1.03-7.58-2.24-12.47-3.62-8.1-2.48-14.84-5-20.22-7.55-5.38-2.55-9.46-5.72-12.26-9.51-2.8-3.79-4.19-8.65-4.19-14.58,0-7.17,1.85-13.34,5.55-18.51,3.7-5.17,8.87-9.21,15.5-12.1,6.63-2.89,14.42-4.34,23.36-4.34,7.82,0,15.22,1.22,22.21,3.67,6.98,2.45,13.34,6.39,19.06,11.84l-11.52,18.02c-5.45-4.47-10.68-7.72-15.71-9.74-5.03-2.02-10.13-3.04-15.29-3.04-2.93,0-5.69.34-8.28,1.03-2.59.69-4.68,1.82-6.28,3.4-1.61,1.58-2.41,3.81-2.41,6.7,0,2.47.73,4.47,2.2,5.98,1.47,1.51,3.7,2.82,6.7,3.92,3,1.1,6.67,2.34,11,3.71,8.8,2.48,16.2,4.99,22.21,7.53,6,2.54,10.58,5.74,13.72,9.59,3.14,3.85,4.71,9.07,4.71,15.67,0,10.72-3.98,19.11-11.94,25.16-7.96,6.05-18.65,9.07-32.05,9.07Z"/>
          <path class="st6" d="M1276.84,304.85h-28.07v-60.7c0-8.4-1.64-14.66-4.92-18.79-3.28-4.13-7.79-6.19-13.51-6.19-3.35,0-6.91.96-10.68,2.86-3.77,1.91-7.16,4.54-10.16,7.88-3,3.34-5.27,7.19-6.81,11.56v63.39h-27.86v-152.94h27.86v64.49c4.33-6.9,9.95-12.29,16.86-16.16,6.91-3.87,14.49-5.8,22.73-5.8,7.12,0,12.95,1.18,17.49,3.52,4.54,2.35,8.03,5.59,10.47,9.74,2.44,4.14,4.15,8.73,5.13,13.77.98,5.04,1.47,10.19,1.47,15.43v67.94Z"/>
        </g>
      </g>
    </g>
  </g>
</svg>